Crispy Extended-Regular.ufo
<glyph name="exclam" format="2">
  <advance width="754"/>
  <unicode hex="0021"/>
  <outline>
    <contour>
      <point x="157" y="272" type="line" identifier="1m237t4hyw"/>
      <point x="496" y="272" type="line" identifier="S4rO5KuHiL"/>
      <point x="530" y="341" type="line"/>
      <point x="530" y="1600" type="line" identifier="zfocDyDTCM"/>
      <point x="192" y="1600" type="line" identifier="v7N4yg5XNk"/>
      <point x="157" y="1533" type="line"/>
    </contour>
    <component base="period" xOffset="84"/>
  </outline>
</glyph>
<glyph name="comma" format="2">
  <advance width="995"/>
  <unicode hex="002C"/>
  <outline>
    <contour>
      <point x="639" y="-477" type="line"/>
      <point x="805" y="0" type="line"/>
      <point x="805" y="210" type="line"/>
      <point x="507" y="210" type="line"/>
      <point x="453" y="140" type="line"/>
      <point x="453" y="0" type="line"/>
      <point x="610" y="0" type="line"/>
      <point x="610" y="-477" type="line"/>
    </contour>
  </outline>
</glyph>
<glyph name="period" format="2">
  <advance width="723"/>
  <unicode hex="002E"/>
  <outline>
    <contour>
      <point x="487" y="0" type="line" identifier="1m237t4hyw"/>
      <point x="532" y="47" type="line" identifier="v7N4yg5XNk"/>
      <point x="532" y="215" type="line"/>
      <point x="201" y="215" type="line" identifier="zfocDyDTCM"/>
      <point x="156" y="167" type="line"/>
      <point x="156" y="0" type="line" identifier="S4rO5KuHiL"/>
    </contour>
  </outline>
</glyph>
<glyph name="three" format="2">
  <advance width="4472"/>
  <unicode hex="0033"/>
  <outline>
    <contour>
      <point x="294" y="0" type="line" identifier="O9abUc1nmN"/>
      <point x="4059" y="0" type="line" identifier="kMJYMTfXCq"/>
      <point x="4059" y="891" type="line" identifier="su2XmdS8e8"/>
      <point x="3711" y="891" type="line" identifier="JQaOzDQqlF"/>
      <point x="3711" y="1600" type="line" identifier="xg8x2Ki40p"/>
      <point x="323" y="1600" type="line" identifier="pE1XSRiy68"/>
      <point x="323" y="1404" type="line" identifier="7ogBYufWpl"/>
      <point x="3359" y="1404" type="line" identifier="RHLvSX2Jv6"/>
      <point x="3359" y="893" type="line" identifier="iic1IBkDqp"/>
      <point x="832" y="893" type="line" identifier="lRLJEhXMlO"/>
      <point x="832" y="707" type="line" identifier="8aKgEELrVU"/>
      <point x="3707" y="707" type="line" identifier="Dm8zjmbhNr"/>
      <point x="3707" y="196" type="line" identifier="xv9CFHiFgB"/>
      <point x="294" y="196" type="line" identifier="YajKQV3MHP"/>
    </contour>
  </outline>
</glyph>
<glyph name="four" format="2">
  <advance width="4060"/>
  <unicode hex="0034"/>
  <outline>
    <contour>
      <point x="3187" y="0" type="line"/>
      <point x="3538" y="0" type="line"/>
      <point x="3538" y="677" type="line"/>
      <point x="3896" y="677" type="line"/>
      <point x="3896" y="884" type="line"/>
      <point x="3538" y="884" type="line"/>
      <point x="3538" y="1600" type="line"/>
      <point x="3187" y="1600" type="line"/>
      <point x="3187" y="884" type="line"/>
      <point x="516" y="884" type="line"/>
      <point x="516" y="1082" type="line"/>
      <point x="517" y="1617" type="line"/>
      <point x="165" y="1617" type="line"/>
      <point x="165" y="1082" type="line"/>
      <point x="165" y="677" type="line"/>
      <point x="3187" y="677" type="line"/>
    </contour>
  </outline>
</glyph>
<glyph name="nine" format="2">
  <advance width="4176"/>
  <unicode hex="0039"/>
  <outline>
    <contour>
      <point x="336" y="0" type="line" identifier="oGvEEuxnYv"/>
      <point x="4011" y="0" type="line" identifier="xR3pEHbMJx"/>
      <point x="4011" y="1600" type="line" identifier="uiw6aBUf4P"/>
      <point x="335" y="1600" type="line" identifier="jtYkxiUX6G"/>
      <point x="335" y="707" type="line" identifier="2G5L37c87I"/>
      <point x="3659" y="707" type="line"/>
      <point x="3659" y="196" type="line"/>
      <point x="336" y="196" type="line"/>
    </contour>
    <contour>
      <point x="687" y="893" type="line"/>
      <point x="687" y="1404" type="line"/>
      <point x="3659" y="1404" type="line"/>
      <point x="3659" y="893" type="line"/>
    </contour>
  </outline>
</glyph>
<glyph name="B" format="2">
  <advance width="4523"/>
  <unicode hex="0042"/>
  <outline>
    <contour>
      <point x="446" y="0" type="line" identifier="hvY9r8RmLr"/>
      <point x="3759" y="0" type="line" identifier="9QFpw7nfq7"/>
      <point x="4199" y="475" type="line"/>
      <point x="4199" y="895" type="line" identifier="543PerILpr"/>
      <point x="3841" y="895" type="line" identifier="zhomauHW30"/>
      <point x="3841" y="1600" type="line" identifier="FaP204GrdB"/>
      <point x="446" y="1600" type="line" identifier="JEev70GAj6"/>
    </contour>
    <contour>
      <point x="798" y="196" type="line" identifier="jaMSiLrCua"/>
      <point x="798" y="707" type="line" identifier="XSrxNd2axx"/>
      <point x="3847" y="707" type="line" identifier="lsRGatjQja"/>
      <point x="3847" y="545" type="line"/>
      <point x="3507" y="196" type="line" identifier="xhlDJ3CjD5"/>
    </contour>
    <contour>
      <point x="798" y="893" type="line" identifier="By7dfMihfe"/>
      <point x="798" y="1404" type="line" identifier="1p5hKrurVy"/>
      <point x="3491" y="1404" type="line" identifier="Qby8aMtF2X"/>
      <point x="3491" y="893" type="line" identifier="xpxyvIzPoc"/>
    </contour>
  </outline>
</glyph>
<glyph name="D" format="2">
  <advance width="4578"/>
  <unicode hex="0044"/>
  <outline>
    <contour>
      <point x="445" y="0" type="line" identifier="IF8msvcgce"/>
      <point x="3808" y="0" type="line" identifier="ydeACnPZN4"/>
      <point x="4255" y="459" type="line" identifier="wIy2omw5Da"/>
      <point x="4255" y="1600" type="line" identifier="gh4oopoKIn"/>
      <point x="445" y="1600" type="line" identifier="hTYdJwlqIh"/>
    </contour>
    <contour>
      <point x="797" y="207" type="line" identifier="YShvMHvurg"/>
      <point x="797" y="1393" type="line" identifier="OGdfzPVlic"/>
      <point x="3903" y="1393" type="line" identifier="4w8cXO1HlF"/>
      <point x="3903" y="542" type="line" identifier="5OFemp6E2Y"/>
      <point x="3549" y="207" type="line" identifier="DiLdvAK6bW"/>
    </contour>
  </outline>
</glyph>
<glyph name="M" format="2">
  <advance width="5238"/>
  <unicode hex="004D"/>
  <outline>
    <contour>
      <point x="2233" y="69" type="line" identifier="0Dn4Xpf57M"/>
      <point x="1018" y="1393" type="line"/>
      <point x="670" y="1393" type="line"/>
      <point x="670" y="0" type="line"/>
      <point x="322" y="0" type="line"/>
      <point x="322" y="1600" type="line"/>
      <point x="1241" y="1600" type="line"/>
      <point x="2417" y="311" type="line"/>
      <point x="2821" y="311" type="line" identifier="9aKZPM0HPh"/>
      <point x="3996" y="1600" type="line"/>
      <point x="4916" y="1600" type="line"/>
      <point x="4916" y="0" type="line"/>
      <point x="4567" y="0" type="line"/>
      <point x="4567" y="1393" type="line"/>
      <point x="4220" y="1393" type="line"/>
      <point x="3005" y="69" type="line" identifier="spdoeeCFft"/>
    </contour>
  </outline>
</glyph>
<glyph name="S" format="2">
  <advance width="3903"/>
  <unicode hex="0053"/>
  <outline>
    <contour>
      <point x="166" y="0" type="line" identifier="09VlJ0BjUX"/>
      <point x="3298" y="0" type="line" identifier="EagWihqFM8"/>
      <point x="3738" y="474" type="line"/>
      <point x="3738" y="900" type="line" identifier="KfNuQA7eZe"/>
      <point x="517" y="900" type="line" identifier="At364YZFEy"/>
      <point x="517" y="1049" type="line"/>
      <point x="854" y="1405" type="line"/>
      <point x="3735" y="1405" type="line" identifier="3ZUkG35meB"/>
      <point x="3735" y="1600" type="line" identifier="SaF9ojRFrW"/>
      <point x="606" y="1600" type="line"/>
      <point x="166" y="1121" type="line"/>
      <point x="166" y="713" type="line" identifier="3sQ8t8BZ6b"/>
      <point x="3387" y="713" type="line" identifier="yiV6OCBLHg"/>
      <point x="3387" y="544" type="line"/>
      <point x="3045" y="195" type="line" identifier="9kdl9SYsn8"/>
      <point x="166" y="195" type="line" identifier="yZDWuX8LLe"/>
    </contour>
  </outline>
</glyph>
<glyph name="U" format="2">
  <advance width="4086"/>
  <unicode hex="0055"/>
  <outline>
    <contour>
      <point x="182" y="0" type="line" smooth="yes"/>
      <point x="3769" y="0" type="line" smooth="yes"/>
      <point x="3769" y="1600" type="line" smooth="yes"/>
      <point x="3417" y="1600" type="line" smooth="yes"/>
      <point x="3417" y="207" type="line"/>
      <point x="534" y="207" type="line" smooth="yes"/>
      <point x="534" y="1600" type="line"/>
      <point x="182" y="1600" type="line" smooth="yes"/>
    </contour>
  </outline>
</glyph>
<glyph name="V" format="2">
  <advance width="4385"/>
  <unicode hex="0056"/>
  <outline>
    <contour>
      <point x="444" y="0" type="line" smooth="yes"/>
      <point x="444" y="1600" type="line" smooth="yes"/>
      <point x="796" y="1600" type="line" smooth="yes"/>
      <point x="796" y="207" type="line"/>
      <point x="3385" y="207" type="line" smooth="yes"/>
      <point x="3711" y="544" type="line"/>
      <point x="3711" y="1600" type="line"/>
      <point x="4063" y="1600" type="line" smooth="yes"/>
      <point x="4063" y="474" type="line"/>
      <point x="3623" y="0" type="line" smooth="yes"/>
    </contour>
  </outline>
</glyph>
<glyph name="X" format="2">
  <advance width="4318"/>
  <unicode hex="0058"/>
  <outline>
    <contour>
      <point x="3344" y="689" type="line"/>
      <point x="3675" y="450" type="line"/>
      <point x="3675" y="0" type="line"/>
      <point x="4027" y="0" type="line"/>
      <point x="4027" y="546" type="line"/>
      <point x="3676" y="789" type="line"/>
      <point x="3676" y="790" type="line"/>
      <point x="4024" y="790" type="line"/>
      <point x="4024" y="1600" type="line"/>
      <point x="3672" y="1600" type="line"/>
      <point x="3672" y="896" type="line"/>
      <point x="3377" y="896" type="line"/>
      <point x="941" y="896" type="line"/>
      <point x="646" y="1094" type="line"/>
      <point x="646" y="1600" type="line"/>
      <point x="295" y="1600" type="line"/>
      <point x="295" y="1013" type="line"/>
      <point x="643" y="791" type="line"/>
      <point x="643" y="790" type="line"/>
      <point x="292" y="790" type="line"/>
      <point x="292" y="0" type="line"/>
      <point x="643" y="0" type="line"/>
      <point x="643" y="689" type="line"/>
      <point x="974" y="689" type="line"/>
    </contour>
  </outline>
</glyph>
<glyph name="Z" format="2">
  <advance width="4175"/>
  <unicode hex="005A"/>
  <outline>
    <contour>
      <point x="291" y="0" type="line"/>
      <point x="3884" y="0" type="line" identifier="pzdvPTirLJ"/>
      <point x="3884" y="583" type="line" identifier="91SxUS0iwG"/>
      <point x="3532" y="583" type="line"/>
      <point x="3532" y="192" type="line"/>
      <point x="642" y="192" type="line"/>
      <point x="642" y="436" type="line"/>
      <point x="3872" y="1154" type="line" identifier="yyb1NCCI5w"/>
      <point x="3872" y="1600" type="line" identifier="5FogYRSgkk"/>
      <point x="301" y="1600" type="line" identifier="svlFvrau4c"/>
      <point x="301" y="1072" type="line" identifier="LQ9fBsTy9K"/>
      <point x="650" y="1072" type="line"/>
      <point x="650" y="1408" type="line"/>
      <point x="3521" y="1408" type="line"/>
      <point x="3521" y="1270" type="line"/>
      <point x="291" y="579" type="line" identifier="teVKnpBcVb"/>
    </contour>
  </outline>
</glyph>
<glyph name="C.wide" format="2">
  <advance width="4189"/>
  <outline>
    <contour>
      <point x="325" y="0" type="line" identifier="7lPhzTnk2Z"/>
      <point x="3864" y="0" type="line" identifier="qJVLZGnkwh"/>
      <point x="3864" y="487" type="line" identifier="nDnDHzAMXL"/>
      <point x="3512" y="487" type="line" identifier="QX1V08aTu0"/>
      <point x="3512" y="207" type="line" identifier="Y750RHTvDj"/>
      <point x="676" y="207" type="line" identifier="L2LsGnXiZ2"/>
      <point x="676" y="1046" type="line" identifier="sUWsr03vF4"/>
      <point x="1002" y="1393" type="line" identifier="dbOUe6OhxL"/>
      <point x="3511" y="1393" type="line" identifier="5BjRbcud80"/>
      <point x="3511" y="961" type="line" identifier="fNVDqwQo2o"/>
      <point x="3863" y="961" type="line" identifier="wLqQQx7QVN"/>
      <point x="3863" y="1600" type="line" identifier="9eJelv8BOw"/>
      <point x="766" y="1600" type="line" identifier="lfZev3ICaC"/>
      <point x="325" y="1121" type="line" identifier="V1EWIdPahq"/>
    </contour>
  </outline>
</glyph>
<glyph name="E.wide" format="2">
  <advance width="4159"/>
  <outline>
    <contour>
      <point x="445" y="0" type="line" identifier="fZynkQ4XHB"/>
      <point x="3714" y="0" type="line" identifier="FAQNpgUPxV"/>
      <point x="3714" y="571" type="line" identifier="gHI0YjrPxR"/>
      <point x="3365" y="571" type="line" identifier="gxCIuXb4el"/>
      <point x="3365" y="192" type="line" identifier="5cgTYOhATF"/>
      <point x="797" y="192" type="line" identifier="bWs42DaCgU"/>
      <point x="797" y="704" type="line" identifier="VtD2aADJmn"/>
      <point x="3068" y="704" type="line" identifier="PpbsFdHAnS"/>
      <point x="3068" y="896" type="line" identifier="8WuC5p8Ax5"/>
      <point x="797" y="896" type="line" identifier="m39IWn9ntA"/>
      <point x="797" y="1408" type="line" identifier="gQ21I4SHQg"/>
      <point x="3364" y="1408" type="line" identifier="eqNb2VTwYs"/>
      <point x="3364" y="1017" type="line" identifier="mLmcFoJA4m"/>
      <point x="3713" y="1017" type="line" identifier="e79n7CoPy1"/>
      <point x="3713" y="1600" type="line" identifier="qYRmo14Il5"/>
      <point x="445" y="1600" type="line" identifier="HmJIcnLWfC"/>
    </contour>
  </outline>
</glyph>
<glyph name="F.wide" format="2">
  <advance width="4438"/>
  <outline>
    <contour>
      <point x="445" y="0" type="line" identifier="oAgH2tA6DJ"/>
      <point x="796" y="0" type="line" identifier="zCZyMcW5ho"/>
      <point x="796" y="647" type="line" identifier="yHYqkMd7LI"/>
      <point x="3215" y="647" type="line" identifier="NmB7yyQuio"/>
      <point x="3215" y="854" type="line" identifier="wQk2C8zPHh"/>
      <point x="796" y="854" type="line" identifier="4cFHKQfHDt"/>
      <point x="796" y="1393" type="line" identifier="ZvzwyrcwpS"/>
      <point x="3642" y="1393" type="line" identifier="4E754ovOIe"/>
      <point x="3642" y="980" type="line" identifier="vZkeT9KrKR"/>
      <point x="3994" y="980" type="line" identifier="0tk7G4orz6"/>
      <point x="3994" y="1600" type="line" identifier="NUrIjqOB7J"/>
      <point x="445" y="1600" type="line" identifier="TBAYuCfUFX"/>
    </contour>
  </outline>
</glyph>
<glyph name="G.wide" format="2">
  <advance width="4294"/>
  <outline>
    <contour>
      <point x="291" y="0" type="line" identifier="7lPhzTnk2Z"/>
      <point x="4002" y="0" type="line" identifier="qJVLZGnkwh"/>
      <point x="4002" y="894" type="line" identifier="uek1NNj7De"/>
      <point x="2397" y="894" type="line" identifier="qcvimxjndX"/>
      <point x="2397" y="702" type="line" identifier="EARaY3Su65"/>
      <point x="3650" y="702" type="line" identifier="4m6dHLVhZq"/>
      <point x="3650" y="192" type="line" identifier="Y750RHTvDj"/>
      <point x="642" y="192" type="line" identifier="L2LsGnXiZ2"/>
      <point x="642" y="1061" type="line" identifier="sUWsr03vF4"/>
      <point x="985" y="1408" type="line" identifier="dbOUe6OhxL"/>
      <point x="3651" y="1408" type="line" identifier="5BjRbcud80"/>
      <point x="3651" y="1084" type="line" identifier="fNVDqwQo2o"/>
      <point x="4002" y="1084" type="line" identifier="wLqQQx7QVN"/>
      <point x="4002" y="1600" type="line" identifier="9eJelv8BOw"/>
      <point x="741" y="1600" type="line" identifier="lfZev3ICaC"/>
      <point x="291" y="1135" type="line" identifier="V1EWIdPahq"/>
    </contour>
  </outline>
</glyph>
<glyph name="I.narrow" format="2">
  <advance width="1253"/>
  <outline>
    <contour>
      <point x="803" y="1" type="line" identifier="1m237t4hyw"/>
      <point x="803" y="1600" type="line" identifier="v7N4yg5XNk"/>
      <point x="451" y="1600" type="line" identifier="zfocDyDTCM"/>
      <point x="451" y="1" type="line" identifier="S4rO5KuHiL"/>
    </contour>
  </outline>
</glyph>
<glyph name="M.narrow" format="2">
  <advance width="5542"/>
  <outline>
    <contour>
      <point x="4775" y="0" type="line" smooth="yes" identifier="12Pyby1xY2"/>
      <point x="5127" y="0" type="line" smooth="yes" identifier="5LJg4ajoG6"/>
      <point x="5127" y="1600" type="line" smooth="yes" identifier="ZqTZqAY3uY"/>
      <point x="743" y="1600" type="line" smooth="yes" identifier="R4lklfJsHA"/>
      <point x="293" y="1132" type="line" smooth="yes" identifier="7g7f8Wu7K4"/>
      <point x="293" y="0" type="line" smooth="yes" identifier="RTOJW56qXy"/>
      <point x="645" y="0" type="line" identifier="JfSFAkWGZC"/>
      <point x="645" y="1023" type="line" smooth="yes" identifier="WWvGwSpq0g"/>
      <point x="1012" y="1393" type="line" smooth="yes" identifier="oee4nqI8Wl"/>
      <point x="2534" y="1393" type="line" identifier="Ljn2lpvpG8"/>
      <point x="2534" y="33" type="line" smooth="yes"/>
      <point x="2886" y="33" type="line"/>
      <point x="2886" y="1393" type="line" identifier="GlWB6PG54Z"/>
      <point x="4775" y="1393" type="line" identifier="iqeTRv7HXg"/>
    </contour>
  </outline>
</glyph>
<glyph name="N.wide" format="2">
  <advance width="4164"/>
  <outline>
    <contour>
      <point x="348" y="0" type="line" identifier="CkwYPPvJLv"/>
      <point x="699" y="0" type="line" identifier="oHTJsN7drZ"/>
      <point x="699" y="1387" type="line" identifier="wfBbYd10Pm"/>
      <point x="1012" y="1387" type="line" identifier="MEnBDHq6zU"/>
      <point x="3330" y="0" type="line" identifier="3Nbopwznvn"/>
      <point x="4091" y="0" type="line" identifier="uKfuudIUvA"/>
      <point x="4091" y="1600" type="line" identifier="XRdLFXiM4t"/>
      <point x="3740" y="1600" type="line" identifier="MUSJPjCIXg"/>
      <point x="3740" y="215" type="line" identifier="VILP20cFmq"/>
      <point x="3426" y="215" type="line" identifier="z5b04GDwRN"/>
      <point x="1109" y="1600" type="line" identifier="LL64NQ6WBE"/>
      <point x="348" y="1600" type="line" identifier="dzUaaP1sjt"/>
    </contour>
  </outline>
</glyph>
<glyph name="P.wide" format="2">
  <advance width="4000"/>
  <outline>
    <contour>
      <point x="257" y="0" type="line" identifier="EG08jqU5fb"/>
      <point x="608" y="0" type="line" identifier="osRzIFK2Cu"/>
      <point x="608" y="536" type="line" identifier="hIFVovVRwe"/>
      <point x="3759" y="536" type="line" identifier="Tt6D8zYZmU"/>
      <point x="3759" y="1600" type="line" identifier="6xW04auDFu"/>
      <point x="257" y="1600" type="line" identifier="eETO5GBD5v"/>
    </contour>
    <contour>
      <point x="608" y="746" type="line" identifier="PIBVN1PGv1"/>
      <point x="608" y="1393" type="line" identifier="IZIZQr2gYJ"/>
      <point x="3408" y="1393" type="line" identifier="2c4LCF1E1R"/>
      <point x="3408" y="746" type="line" identifier="1WCnzth1GX"/>
    </contour>
  </outline>
</glyph>
<glyph name="R.wide" format="2">
  <advance width="3972"/>
  <outline>
    <contour>
      <point x="3369" y="0" type="line"/>
      <point x="3721" y="0" type="line"/>
      <point x="3721" y="430" type="line"/>
      <point x="3296" y="580" type="line"/>
      <point x="2928" y="567" type="line"/>
      <point x="3369" y="393" type="line"/>
    </contour>
    <contour>
      <point x="319" y="-1" type="line" identifier="EG08jqU5fb"/>
      <point x="670" y="-1" type="line" identifier="osRzIFK2Cu"/>
      <point x="670" y="562" type="line" identifier="hIFVovVRwe"/>
      <point x="3788" y="562" type="line" identifier="Tt6D8zYZmU"/>
      <point x="3788" y="1599" type="line" identifier="6xW04auDFu"/>
      <point x="319" y="1599" type="line" identifier="eETO5GBD5v"/>
    </contour>
    <contour>
      <point x="670" y="769" type="line" identifier="PIBVN1PGv1"/>
      <point x="670" y="1392" type="line" identifier="IZIZQr2gYJ"/>
      <point x="3436" y="1392" type="line" identifier="2c4LCF1E1R"/>
      <point x="3436" y="769" type="line" identifier="1WCnzth1GX"/>
    </contour>
  </outline>
</glyph>
<glyph name="S.wide" format="2">
  <advance width="3898"/>
  <outline>
    <contour>
      <point x="165" y="0" type="line" identifier="09VlJ0BjUX"/>
      <point x="3293" y="0" type="line" identifier="EagWihqFM8"/>
      <point x="3734" y="472" type="line"/>
      <point x="3735" y="904" type="line" identifier="KfNuQA7eZe"/>
      <point x="516" y="904" type="line" identifier="At364YZFEy"/>
      <point x="516" y="1049" type="line"/>
      <point x="853" y="1405" type="line"/>
      <point x="3380" y="1405" type="line" identifier="3ZUkG35meB"/>
      <point x="3380" y="1120" type="line" identifier="DTOJhFIl15"/>
      <point x="3732" y="1120" type="line" identifier="9KDcrfQ5Ui"/>
      <point x="3731" y="1600" type="line" identifier="SaF9ojRFrW"/>
      <point x="605" y="1600" type="line"/>
      <point x="165" y="1121" type="line"/>
      <point x="165" y="718" type="line" identifier="3sQ8t8BZ6b"/>
      <point x="3383" y="718" type="line" identifier="yiV6OCBLHg"/>
      <point x="3383" y="544" type="line"/>
      <point x="3041" y="195" type="line" identifier="9kdl9SYsn8"/>
      <point x="517" y="195" type="line" identifier="yZDWuX8LLe"/>
      <point x="517" y="485" type="line" identifier="jYb9001DTm"/>
      <point x="165" y="485" type="line" identifier="ho4DrS0rdW"/>
    </contour>
  </outline>
</glyph>
<glyph name="Y.wide" format="2">
  <advance width="4448"/>
  <outline>
    <contour>
      <point x="415" y="0" type="line"/>
      <point x="4036" y="0" type="line" identifier="oOtn61SmRY"/>
      <point x="4036" y="1600" type="line" identifier="8OglXgblhr"/>
      <point x="3684" y="1600" type="line" identifier="db0bPhBdaU"/>
      <point x="3684" y="931" type="line" identifier="MTAeavIVWY"/>
      <point x="764" y="931" type="line" identifier="lggLiivmLt"/>
      <point x="764" y="1600" type="line" identifier="UPaHY3UudR"/>
      <point x="413" y="1600" type="line" identifier="ZnCDQVdtyD"/>
      <point x="413" y="739" type="line" identifier="uqAJBjDIOT"/>
      <point x="3684" y="739" type="line" identifier="7JgTtdb0jg"/>
      <point x="3684" y="192" type="line"/>
      <point x="766" y="192" type="line"/>
      <point x="766" y="486" type="line"/>
      <point x="415" y="486" type="line"/>
    </contour>
  </outline>
</glyph>
<glyph name="Z.wide" format="2">
  <advance width="4206"/>
  <outline>
    <contour>
      <point x="329" y="0" type="line"/>
      <point x="3881" y="0" type="line" identifier="pzdvPTirLJ"/>
      <point x="3881" y="192" type="line"/>
      <point x="719" y="192" type="line"/>
      <point x="719" y="470" type="line"/>
      <point x="3861" y="1096" type="line" identifier="yyb1NCCI5w"/>
      <point x="3861" y="1600" type="line" identifier="5FogYRSgkk"/>
      <point x="334" y="1600" type="line" identifier="svlFvrau4c"/>
      <point x="334" y="1408" type="line"/>
      <point x="3430" y="1408" type="line"/>
      <point x="3430" y="1252" type="line"/>
      <point x="329" y="632" type="line" identifier="teVKnpBcVb"/>
    </contour>
  </outline>
</glyph>
<glyph name="five.wide" format="2">
  <advance width="4265"/>
  <outline>
    <contour>
      <point x="294" y="0" type="line" identifier="09VlJ0BjUX"/>
      <point x="3973" y="0" type="line" identifier="EagWihqFM8"/>
      <point x="3973" y="893" type="line" identifier="KfNuQA7eZe"/>
      <point x="643" y="893" type="line" identifier="At364YZFEy"/>
      <point x="643" y="1404" type="line" identifier="BcuLfvaQKC"/>
      <point x="3972" y="1404" type="line" identifier="3ZUkG35meB"/>
      <point x="3972" y="1600" type="line" identifier="SaF9ojRFrW"/>
      <point x="292" y="1600" type="line" identifier="F4sQEYelA8"/>
      <point x="292" y="707" type="line" identifier="3sQ8t8BZ6b"/>
      <point x="3621" y="707" type="line" identifier="yiV6OCBLHg"/>
      <point x="3621" y="196" type="line" identifier="9kdl9SYsn8"/>
      <point x="294" y="196" type="line" identifier="yZDWuX8LLe"/>
    </contour>
  </outline>
</glyph>
<glyph name="nine.wide" format="2">
  <advance width="4315"/>
  <outline>
    <contour>
      <point x="4024" y="1601" type="line" identifier="uiw6aBUf4P"/>
      <point x="292" y="1601" type="line" identifier="jtYkxiUX6G"/>
      <point x="292" y="709" type="line" identifier="2G5L37c87I"/>
      <point x="3673" y="709" type="line"/>
      <point x="3673" y="197" type="line"/>
      <point x="644" y="197" type="line"/>
      <point x="644" y="446" type="line"/>
      <point x="293" y="446" type="line" identifier="Wuidbv6mUe"/>
      <point x="293" y="1" type="line" identifier="oGvEEuxnYv"/>
      <point x="4024" y="1" type="line" identifier="xR3pEHbMJx"/>
    </contour>
    <contour>
      <point x="644" y="895" type="line"/>
      <point x="644" y="1405" type="line"/>
      <point x="3673" y="1405" type="line"/>
      <point x="3673" y="895" type="line"/>
    </contour>
  </outline>
</glyph>
<glyph name="one.narrow" format="2">
  <advance width="2773"/>
  <outline>
    <contour>
      <point x="2326" y="0" type="line" identifier="5nmxQXofSG"/>
      <point x="2326" y="1600" type="line" identifier="4rjIeWbSbx"/>
      <point x="326" y="1600" type="line"/>
      <point x="326" y="1393" type="line"/>
      <point x="1974" y="1393" type="line"/>
      <point x="1974" y="0" type="line"/>
    </contour>
  </outline>
</glyph>
<glyph name="seven.alt" format="2">
  <advance width="3782"/>
  <outline>
    <contour>
      <point x="276" y="1600" type="line" identifier="jiO9eX9U07"/>
      <point x="3501" y="1600" type="line" identifier="wgpFs1yguc"/>
      <point x="3501" y="0" type="line" identifier="d5Di3vNzni"/>
      <point x="3149" y="0" type="line" identifier="46RrD1WET2"/>
      <point x="3149" y="1393" type="line" identifier="zFXsE8BUYG"/>
      <point x="602" y="1393" type="line" identifier="NQmE31PUns"/>
      <point x="602" y="819" type="line" identifier="qiXxY6YhCq"/>
      <point x="276" y="819" type="line" identifier="7exNZv1XSc"/>
    </contour>
  </outline>
</glyph>
<glyph name="six.wide" format="2">
  <advance width="4378"/>
  <outline>
    <contour>
      <point x="324" y="0" type="line" identifier="uiw6aBUf4P"/>
      <point x="4054" y="0" type="line" identifier="jtYkxiUX6G"/>
      <point x="4054" y="894" type="line" identifier="2G5L37c87I"/>
      <point x="675" y="894" type="line"/>
      <point x="675" y="1161" type="line"/>
      <point x="1010" y="1408" type="line"/>
      <point x="3701" y="1408" type="line"/>
      <point x="3701" y="1073" type="line"/>
      <point x="4053" y="1073" type="line" identifier="Wuidbv6mUe"/>
      <point x="4053" y="1600" type="line" identifier="oGvEEuxnYv"/>
      <point x="768" y="1600" type="line" identifier="xR3pEHbMJx"/>
      <point x="324" y="1243" type="line" identifier="KnMArb0tv8"/>
    </contour>
    <contour>
      <point x="3702" y="702" type="line"/>
      <point x="3702" y="192" type="line"/>
      <point x="675" y="192" type="line"/>
      <point x="675" y="702" type="line"/>
    </contour>
  </outline>
</glyph>
<glyph name="three.wide" format="2">
  <advance width="4413"/>
  <outline>
    <contour>
      <point x="325" y="0" type="line" identifier="O9abUc1nmN"/>
      <point x="4089" y="0" type="line" identifier="kMJYMTfXCq"/>
      <point x="4089" y="885" type="line" identifier="su2XmdS8e8"/>
      <point x="3780" y="885" type="line" identifier="JQaOzDQqlF"/>
      <point x="3780" y="1600" type="line" identifier="xg8x2Ki40p"/>
      <point x="379" y="1600" type="line" identifier="pE1XSRiy68"/>
      <point x="379" y="1016" type="line" identifier="5lNstGRcSF"/>
      <point x="731" y="1016" type="line" identifier="AcE5xKDZfE"/>
      <point x="731" y="1408" type="line" identifier="7ogBYufWpl"/>
      <point x="3428" y="1408" type="line" identifier="RHLvSX2Jv6"/>
      <point x="3428" y="886" type="line" identifier="iic1IBkDqp"/>
      <point x="1251" y="886" type="line" identifier="lRLJEhXMlO"/>
      <point x="1251" y="713" type="line" identifier="8aKgEELrVU"/>
      <point x="3737" y="713" type="line" identifier="Dm8zjmbhNr"/>
      <point x="3737" y="192" type="line" identifier="xv9CFHiFgB"/>
      <point x="676" y="192" type="line" identifier="YajKQV3MHP"/>
      <point x="676" y="579" type="line" identifier="36SchVkwze"/>
      <point x="325" y="579" type="line" identifier="tVui9PiOjA"/>
    </contour>
  </outline>
</glyph>
<glyph name="two.wide" format="2">
  <advance width="4232"/>
  <outline>
    <contour>
      <point x="291" y="0" type="line"/>
      <point x="3939" y="0" type="line" identifier="pzdvPTirLJ"/>
      <point x="3939" y="523" type="line"/>
      <point x="3587" y="523" type="line"/>
      <point x="3587" y="192" type="line"/>
      <point x="644" y="192" type="line"/>
      <point x="644" y="718" type="line"/>
      <point x="3940" y="718" type="line" identifier="yyb1NCCI5w"/>
      <point x="3940" y="1600" type="line" identifier="5FogYRSgkk"/>
      <point x="294" y="1600" type="line" identifier="svlFvrau4c"/>
      <point x="294" y="1057" type="line" identifier="LQ9fBsTy9K"/>
      <point x="646" y="1057" type="line"/>
      <point x="646" y="1408" type="line"/>
      <point x="3588" y="1408" type="line"/>
      <point x="3588" y="874" type="line"/>
      <point x="291" y="874" type="line" identifier="teVKnpBcVb"/>
    </contour>
  </outline>
</glyph>
